<svg width="56" height="57" viewBox="0 0 56 57" fill="none" xmlns="http://www.w3.org/2000/svg">
<g clip-path="url(#clip0_15618_1625)">
<path d="M15.7401 24.2062C15.2921 25.1251 16.3488 26.0448 17.1971 25.4742L27.8066 18.3387C28.1517 18.1065 28.6045 18.1123 28.9437 18.3531L38.7115 25.2891C39.5554 25.8884 40.6422 24.9679 40.19 24.0369L28.9276 0.848468C28.5633 0.0982829 27.4947 0.0974722 27.1292 0.847103L15.7401 24.2062Z" fill="#3AE8AD"/>
<path d="M2.76138 55.5499C1.89996 56.0014 0.966233 55.0821 1.40431 54.2138L7.27676 42.5737C7.35347 42.4217 7.46774 42.2917 7.60875 42.1962L27.7367 28.5618C28.0771 28.3313 28.5238 28.3325 28.8628 28.5648L48.851 42.2614C48.9947 42.3598 49.1101 42.4941 49.186 42.6509L54.6899 54.0319C55.1091 54.8987 54.1812 55.7991 53.3273 55.354L28.6267 42.4768C28.3363 42.3254 27.9902 42.3258 27.7002 42.4779L2.76138 55.5499Z" fill="#3F79DA"/>
</g>
<defs>
<clipPath id="clip0_15618_1625">
<rect width="56" height="57" fill="white"/>
</clipPath>
</defs>
</svg>
